<svg xmlns="http://www.w3.org/2000/svg" version="1.1" xmlns:xlink="http://www.w3.org/1999/xlink" width="1500" height="1500" viewBox="0 0 1500 1500"><rect width="1500" height="1500" x="0" y="0" id="background" stroke="transparent" fill="#ffffff"></rect><svg xml:space="preserve" width="1000" height="1000" data-version="2" data-id="lg_G7Pn3SUFnJzx2EsULm" viewBox="0 0 465 553" x="250" y="250"><rect width="100%" height="100%" fill="transparent"></rect><rect width="321.79" height="315.95" x="-160.9" y="-157.97" rx="0" ry="0" transform="translate(232.5 229.73)scale(1.4136)"></rect><path fill="#ccdfff" d="M300.503 137.006 263.2 105.579V60.11l37.304 31.306 39.634-31.306 39.638 31.306 37.216-31.306v45.546l-37.216 31.35-39.638-31.306zm0 76.896L263.2 182.475v-45.469l37.304 31.306 39.634-31.306 39.638 31.306 37.216-31.306v45.546l-37.216 31.35-39.638-31.306z"></path><path fill="#f6f5ef" d="m124.915 65.927 20.247-36.921 4.575 41.86 32.831-26.364-11.79 40.422 40.421-11.791-26.361 32.834 41.857 4.575-36.92 20.244 36.92 20.247-41.857 4.575 26.361 32.831-40.422-11.79 11.791 40.421-32.831-26.361-4.575 41.857-20.247-36.92-20.244 36.92-4.575-41.857-32.834 26.361 11.79-40.422-40.421 11.791 26.364-32.831-41.86-4.575 36.92-20.247-36.92-20.244 41.86-4.575L38.63 73.133l40.422 11.79-11.791-40.421 32.834 26.364 4.575-41.86z"></path><path fill="#ccdfff" d="m85.268 330.571-37.304-31.427v-45.469l37.304 31.306 39.634-31.306 39.638 31.306 37.216-31.306v45.546l-37.216 31.35-39.638-31.306zm0 76.897-37.304-31.427v-45.469l37.304 31.306 39.634-31.306 39.638 31.306 37.216-31.306v45.546l-37.216 31.35-39.638-31.306z"></path><path fill="#f6f5ef" d="m340.095 265.71 20.247-36.92 4.575 41.86 32.831-26.364-11.79 40.422 40.421-11.791-26.361 32.834 41.857 4.575-36.92 20.244 36.92 20.247-41.857 4.575 26.361 32.831-40.422-11.79 11.791 40.421-32.831-26.361-4.575 41.857-20.247-36.92-20.244 36.92-4.575-41.857-32.834 26.361 11.79-40.422-40.421 11.791 26.364-32.831-41.86-4.575 36.92-20.247-36.92-20.244 41.86-4.575-26.364-32.834 40.422 11.79-11.791-40.421 32.834 26.364 4.575-41.86z"></path><path d="M52.21 486.53q15.04 0 23.76 3.64 8.72 3.64 12.2 10.08 3.48 6.44 3.48 15.8 0 8.88-4 15.52-4 6.64-12 10.28-8 3.64-19.68 3.64H41.49q-7.36 0-14.88-.08.64-15.76.64-29.36 0-13.76-.64-28.72 9.52-.8 25.6-.8m6 43.04q7.44 0 9.92-3.6 2.48-3.6 2.48-9.92 0-6.08-2.6-9.84t-9.8-3.76q-7.76 0-11.6.48v26.64Z"></path><rect width="65.04" height="58.96" x="-32.52" y="-29.48" fill="none" rx="0" ry="0" transform="translate(59.63 516.51)"></rect><path d="M133.65 546.29q-18.32 0-26.96-7.96t-8.64-22.36q0-14.24 8.6-22.24 8.6-8 27-8 18.48 0 27.08 8 8.6 8 8.6 22.24 0 14.48-8.56 22.4-8.56 7.92-27.12 7.92m0-16.32q8.88 0 12.8-3.4t3.92-10.6q0-7.04-3.92-10.48-3.92-3.44-12.8-3.44-8.8 0-12.72 3.44t-3.92 10.48q0 7.12 3.92 10.56 3.92 3.44 12.72 3.44"></path><rect width="71.28" height="60.56" x="-35.64" y="-30.28" fill="none" rx="0" ry="0" transform="translate(134.19 516.51)"></rect><path d="M242.85 487.49q-.56 13.52-.56 28.96 0 15.52.56 29.04h-28.64l-19.36-43.68 1.44 43.68h-20.56q.64-15.52.64-29.04 0-13.44-.64-28.96h29.44l19.44 44.88-1.36-44.88Z"></path><rect width="67.12" height="58" x="-33.56" y="-29" fill="none" rx="0" ry="0" transform="translate(209.79 516.99)"></rect><path d="M299.73 545.49q-1.52-4.56-4.08-11.44h-25.52l-4 11.44h-20.08l22.4-58.08h29.44l22.56 58.08Zm-8.64-23.92q-3.04-8.4-6.24-16.8l-1.92-5.2q-2.8 7.28-8.24 22Z"></path><rect width="74.4" height="58.08" x="-37.2" y="-29.04" fill="none" rx="0" ry="0" transform="translate(283.75 516.95)"></rect><path d="M342.61 529.33q23.2-.16 38.4-.8-1.04 4.08-1.28 7.84t-.24 9.12h-56.4q.64-15.52.64-29.04t-.64-29.04h19.52Z"></path><rect width="57.92" height="58.08" x="-28.96" y="-29.04" fill="none" rx="0" ry="0" transform="translate(352.55 516.95)"></rect><path d="M411.41 486.53q15.04 0 23.76 3.64 8.72 3.64 12.2 10.08 3.48 6.44 3.48 15.8 0 8.88-4 15.52-4 6.64-12 10.28-8 3.64-19.68 3.64h-14.48q-7.36 0-14.88-.08.64-15.76.64-29.36 0-13.76-.64-28.72 9.52-.8 25.6-.8m6 43.04q7.44 0 9.92-3.6 2.48-3.6 2.48-9.92 0-6.08-2.6-9.84t-9.8-3.76q-7.76 0-11.6.48v26.64Z"></path><rect width="65.04" height="58.96" x="-32.52" y="-29.48" fill="none" rx="0" ry="0" transform="translate(418.83 516.51)"></rect></svg></svg>